<?xml version="1.0" standalone="no"?>
<!DOCTYPE svg PUBLIC "-//W3C//DTD SVG 20010904//EN"
 "http://www.w3.org/TR/2001/REC-SVG-20010904/DTD/svg10.dtd">
<svg version="1.0" xmlns="http://www.w3.org/2000/svg"
 width="300.000000pt" height="300.000000pt" viewBox="0 0 300.000000 300.000000"
 preserveAspectRatio="xMidYMid meet">
<metadata>
Created by potrace 1.11, written by Peter Selinger 2001-2013
</metadata>
<g transform="translate(0.000000,300.000000) scale(0.100000,-0.100000)"
fill="#000000" stroke="none">
<path d="M890 2684 c0 -3 63 -115 141 -250 l141 -244 322 0 322 0 140 241 c76
133 141 246 142 250 2 5 -266 9 -602 9 -333 0 -606 -2 -606 -6z"/>
<path d="M655 2413 c-66 -114 -121 -210 -123 -215 -2 -4 107 -8 242 -8 135 0
246 3 246 6 0 6 -240 424 -244 424 -1 0 -56 -93 -121 -207z"/>
<path d="M2108 2447 c-54 -95 -109 -191 -124 -214 l-25 -43 251 0 252 0 -27
47 c-81 146 -221 383 -225 383 -3 -1 -49 -78 -102 -173z"/>
<path d="M530 2064 c0 -3 63 -115 141 -250 l141 -244 323 0 323 0 141 244 c78
134 141 246 141 250 0 3 -272 6 -605 6 -333 0 -605 -2 -605 -6z"/>
<path d="M1852 2003 c-168 -290 -265 -459 -274 -478 -9 -19 9 -56 133 -269
118 -206 144 -244 152 -229 6 10 142 247 304 527 161 280 293 510 293 512 0 2
-128 4 -285 4 l-284 0 -39 -67z"/>
<path d="M293 1787 l-123 -212 242 -3 c132 -1 243 0 246 2 4 4 -204 374 -232
411 -9 12 -34 -24 -133 -198z"/>
<path d="M2557 1978 c-8 -13 -64 -110 -125 -215 l-111 -193 250 0 251 0 -20
33 c-11 17 -68 114 -126 215 -101 178 -105 183 -119 160z"/>
<path d="M2071 1173 l-165 -286 25 -46 c67 -123 275 -481 279 -481 3 0 143
237 310 528 167 290 310 537 318 550 l14 22 -308 0 -309 0 -164 -287z"/>
<path d="M173 1437 c4 -12 596 -1039 601 -1045 4 -3 286 485 286 493 0 3 -72
132 -161 285 l-161 280 -285 0 c-227 0 -284 -3 -280 -13z"/>
<path d="M895 1433 c9 -24 598 -1044 600 -1041 2 2 62 107 135 233 73 127 137
237 142 245 7 11 -33 87 -145 283 -85 147 -160 274 -167 282 -10 13 -58 15
-292 15 -263 0 -280 -1 -273 -17z"/>
<path d="M1092 683 c-22 -37 -76 -131 -120 -208 l-81 -140 125 -3 c69 -1 179
-1 244 0 l119 3 -115 200 c-63 110 -119 204 -124 208 -4 5 -26 -22 -48 -60z"/>
<path d="M1727 544 c-65 -114 -116 -208 -114 -210 2 -3 112 -3 244 -2 l241 3
-119 205 c-65 112 -122 206 -126 207 -4 1 -61 -90 -126 -203z"/>
</g>
</svg>
